<?xml version="1.0" encoding="UTF-8"?>
<svg id="Capa_2" data-name="Capa 2" xmlns="http://www.w3.org/2000/svg" viewBox="0 0 4.63 8.9">
  <defs>
    <style>
      .cls-1 {
        fill: #6153d3;
      }
    </style>
  </defs>
  <g id="Capa_1-2" data-name="Capa 1">
    <g>
      <path class="cls-1" d="m4.35,5.3h0c-.39.47-1.01.47-1.4,0L.29,2.06c-.39-.47-.39-1.24,0-1.71H.29c.39-.47,1.01-.47,1.4,0l2.65,3.24c.39.47.39,1.24,0,1.71Z"/>
      <path class="cls-1" d="m.29,8.55H.29c-.39-.47-.39-1.24,0-1.71l2.65-3.24c.39-.47,1.01-.47,1.4,0h0c.39.47.39,1.24,0,1.71l-2.65,3.24c-.39.47-1.01.47-1.4,0Z"/>
    </g>
  </g>
</svg>