<?xml version="1.0" encoding="UTF-8"?>
<svg id="Capa_2" data-name="Capa 2" xmlns="http://www.w3.org/2000/svg" xmlns:xlink="http://www.w3.org/1999/xlink" viewBox="0 0 61.93 58.06">
  <defs>
    <style>
      .cls-1 {
        fill: url(#linear-gradient);
      }

      .cls-2 {
        fill: #fff;
      }
    </style>
    <linearGradient id="linear-gradient" x1="0" y1="29.03" x2="61.93" y2="29.03" gradientUnits="userSpaceOnUse">
      <stop offset="0" stop-color="#ae80f5"/>
      <stop offset=".23" stop-color="#9b75ec"/>
      <stop offset="1" stop-color="#6153d3"/>
    </linearGradient>
  </defs>
  <g id="Capa_1-2" data-name="Capa 1">
    <g>
      <rect class="cls-1" width="61.93" height="58.06" rx="1.51" ry="1.51"/>
      <g>
        <path class="cls-2" d="m31.07,46.99c-11.8,0-21.4-8.34-21.4-18.59S19.27,9.82,31.07,9.82s21.4,8.34,21.4,18.59-9.6,18.59-21.4,18.59Zm0-35.8c-10.93,0-19.82,7.72-19.82,17.22s8.89,17.22,19.82,17.22,19.82-7.72,19.82-17.22-8.89-17.22-19.82-17.22Z"/>
        <g>
          <path class="cls-2" d="m26.64,46.49c-4.58-4.58-7.2-11.17-7.2-18.08s2.62-13.51,7.2-18.1l1.22.92c-4.32,4.33-6.8,10.59-6.8,17.17s2.48,12.82,6.8,17.16l-1.22.92Z"/>
          <path class="cls-2" d="m35.34,46.49l-1.22-.92c4.32-4.33,6.8-10.58,6.8-17.16s-2.48-12.84-6.8-17.17l1.22-.92c4.57,4.58,7.2,11.18,7.2,18.1s-2.62,13.5-7.2,18.08Z"/>
        </g>
        <g>
          <path class="cls-2" d="m11.23,25.69l-1.06-1.06c5.28-3.97,12.86-6.25,20.81-6.25s15.56,2.28,20.83,6.25l-1.06,1.06c-4.99-3.76-12.19-5.91-19.77-5.91s-14.77,2.15-19.75,5.91Z"/>
          <path class="cls-2" d="m30.98,38.44c-7.95,0-15.54-2.28-20.81-6.25l1.06-1.07c4.99,3.76,12.19,5.91,19.75,5.91s14.78-2.15,19.77-5.91l1.06,1.07c-5.27,3.97-12.87,6.25-20.83,6.25Z"/>
        </g>
        <rect class="cls-2" x="10.46" y="27.49" width="41.21" height="1.41"/>
        <rect class="cls-2" x="30.26" y="10.29" width="1.62" height="35.8"/>
      </g>
    </g>
  </g>
</svg>